{
	"asset":{
		"generator":"Khronos glTF Blender I/O v4.2.57",
		"version":"2.0"
	},
	"scene":0,
	"scenes":[
		{
			"name":"Scene",
			"nodes":[
				0
			]
		}
	],
	"nodes":[
		{
			"mesh":0,
			"name":"Cube"
		}
	],
	"materials":[
		{
			"doubleSided":true,
			"name":"Material.001",
			"pbrMetallicRoughness":{
				"baseColorFactor":[
					0.800000011920929,
					0.800000011920929,
					0.800000011920929,
					1
				],
				"roughnessFactor":0
			}
		}
	],
	"meshes":[
		{
			"name":"Cube.001",
			"primitives":[
				{
					"attributes":{
						"POSITION":0,
						"NORMAL":1,
						"TEXCOORD_0":2
					},
					"indices":3,
					"material":0
				}
			]
		}
	],
	"accessors":[
		{
			"bufferView":0,
			"componentType":5126,
			"count":1649,
			"max":[
				0.8562712073326111,
				0.8562712073326111,
				0.8562712073326111
			],
			"min":[
				-0.8562712073326111,
				-0.8562712073326111,
				-0.8562712073326111
			],
			"type":"VEC3"
		},
		{
			"bufferView":1,
			"componentType":5126,
			"count":1649,
			"type":"VEC3"
		},
		{
			"bufferView":2,
			"componentType":5126,
			"count":1649,
			"type":"VEC2"
		},
		{
			"bufferView":3,
			"componentType":5123,
			"count":9216,
			"type":"SCALAR"
		}
	],
	"bufferViews":[
		{
			"buffer":0,
			"byteLength":19788,
			"byteOffset":0,
			"target":34962
		},
		{
			"buffer":0,
			"byteLength":19788,
			"byteOffset":19788,
			"target":34962
		},
		{
			"buffer":0,
			"byteLength":13192,
			"byteOffset":39576,
			"target":34962
		},
		{
			"buffer":0,
			"byteLength":18432,
			"byteOffset":52768,
			"target":34963
		}
	],
	"buffers":[
		{
			"byteLength":71200,
			"uri":"metalSphere.bin"
		}
	]
}
